<svg xmlns="http://www.w3.org/2000/svg" viewBox="0 0 512 512" width="512" height="512">
  <defs>
    <linearGradient id="bg" x1="0%" y1="0%" x2="100%" y2="100%">
      <stop offset="0%" style="stop-color:#e94560"/>
      <stop offset="100%" style="stop-color:#7b68ee"/>
    </linearGradient>
  </defs>
  <rect width="512" height="512" rx="85" fill="url(#bg)"/>
  <path d="M256 96c-24 0-44 20-44 44v22c-48 0-88 40-88 88v77l-22 22v11h308v-11l-22-22v-77c0-48-40-88-88-88v-22c0-24-20-44-44-44zm0 308c24 0 44-20 44-44H212c0 24 20 44 44 44z" fill="white"/>
</svg>

